ffmpeg started on 2025-06-05 at 20:20:19
Report written to "D:\Convert\FFMetrics\reports\ssim_report-6.txt"
Log level: 32
Command line:
ffmpeg -hide_banner -nostdin -i "G:\\\xc0\xed\xe8\xec\xe5\\\xce\xed\xe3\xee\xe8\xed\xe3\xe8\\!_36_\xce\xf1\xe5\xed\xfc_2024\\DreamCast\\\xcd\xe5\xe3\xe0\xf2\xe8\xe2\xed\xfb\xe9 \xef\xee\xe7\xe8\xf2\xe8\xe2\xed\xfb\xe9 \xf0\xfb\xe1\xe0\xea\\[DC] NegaPosi Angler - 06_Telegram_HEVC.mkv" -i "G:\\\xc0\xed\xe8\xec\xe5\\\xce\xed\xe3\xee\xe8\xed\xe3\xe8\\!_36_\xce\xf1\xe5\xed\xfc_2024\\DreamCast\\\xcd\xe5\xe3\xe0\xf2\xe8\xe2\xed\xfb\xe9 \xef\xee\xe7\xe8\xf2\xe8\xe2\xed\xfb\xe9 \xf0\xfb\xe1\xe0\xea\\[DC] NegaPosi Angler - 06_Telegram.mp4" -lavfi "[0:v]settb=AVTB,setpts=PTS-STARTPTS,format=pix_fmts=yuv420p10,fps=24000/1001,scale=1920:1080:flags=bicubic[main];[1:v]settb=AVTB,setpts=PTS-STARTPTS,format=pix_fmts=yuv420p,fps=24000/1001,scale=1920:1080:flags=bicubic[ref];[main][ref]ssim=eof_action=endall:stats_file='D\\:/Convert/FFMetrics/logs/ssim_logfile-6.txt'" -f null -
Input #0, matroska,webm, from 'G:\Аниме\Онгоинги\!_36_Осень_2024\DreamCast\Негативный позитивный рыбак\[DC] NegaPosi Angler - 06_Telegram_HEVC.mkv':
  Metadata:
    COMPATIBLE_BRANDS: isomiso2avc1mp41
    MAJOR_BRAND     : isom
    MINOR_VERSION   : 512
    ENCODER         : Lavf61.7.100
  Duration: 00:23:46.73, start: -0.021000, bitrate: 992 kb/s
  Stream #0:0: Video: hevc (Main 10), yuv420p10le(tv, bt709, progressive), 1920x1080 [SAR 1:1 DAR 16:9], 23.98 fps, 23.98 tbr, 1k tbn (default)
      Metadata:
        HANDLER_NAME    : VideoHandler
        VENDOR_ID       : [0][0][0][0]
        ENCODER         : Lavc61.19.100 libx265
        BPS             : 794981
        DURATION        : 00:23:46.549708333
        NUMBER_OF_FRAMES: 34203
        NUMBER_OF_BYTES : 141760033
        _STATISTICS_WRITING_APP: mkvpropedit v66.0.0 ('Josie') 64-bit
        _STATISTICS_WRITING_DATE_UTC: 2025-05-31 13:21:37
        _STATISTICS_TAGS: BPS DURATION NUMBER_OF_FRAMES NUMBER_OF_BYTES
  Stream #0:1: Audio: aac (LC), 48000 Hz, stereo, fltp (default)
      Metadata:
        HANDLER_NAME    : SoundHandler
        VENDOR_ID       : [0][0][0][0]
        ENCODER         : Lavc61.19.100 aac
        BPS             : 193247
        DURATION        : 00:23:46.730000000
        NUMBER_OF_FRAMES: 66879
        NUMBER_OF_BYTES : 34463951
        _STATISTICS_WRITING_APP: mkvpropedit v66.0.0 ('Josie') 64-bit
        _STATISTICS_WRITING_DATE_UTC: 2025-05-31 13:21:37
        _STATISTICS_TAGS: BPS DURATION NUMBER_OF_FRAMES NUMBER_OF_BYTES
Input #1, mov,mp4,m4a,3gp,3g2,mj2, from 'G:\Аниме\Онгоинги\!_36_Осень_2024\DreamCast\Негативный позитивный рыбак\[DC] NegaPosi Angler - 06_Telegram.mp4':
  Metadata:
    major_brand     : isom
    minor_version   : 512
    compatible_brands: isomiso2avc1mp41
    encoder         : Lavf61.1.100
  Duration: 00:23:46.68, start: 0.000000, bitrate: 3787 kb/s
  Stream #1:0[0x1](und): Video: h264 (High) (avc1 / 0x31637661), yuv420p(tv, bt709, progressive), 1920x1080 [SAR 1:1 DAR 16:9], 3639 kb/s, 23.98 fps, 23.98 tbr, 24k tbn (default)
      Metadata:
        handler_name    : VideoHandler
        vendor_id       : [0][0][0][0]
        encoder         : Lavc61.3.100 h264_qsv
  Stream #1:1[0x2](und): Audio: aac (HE-AACv2) (mp4a / 0x6134706D), 48000 Hz, stereo, fltp, 144 kb/s (default)
      Metadata:
        handler_name    : SoundHandler
        vendor_id       : [0][0][0][0]
Stream mapping:
  Stream #0:0 (hevc) -> settb:default
  Stream #1:0 (h264) -> settb:default
  ssim:default -> Stream #0:0 (wrapped_avframe)
  Stream #0:1 -> #0:1 (aac (native) -> pcm_s16le (native))
Output #0, null, to 'pipe:':
  Metadata:
    COMPATIBLE_BRANDS: isomiso2avc1mp41
    MAJOR_BRAND     : isom
    MINOR_VERSION   : 512
    encoder         : Lavf61.7.100
  Stream #0:0: Video: wrapped_avframe, yuv420p10le(tv, bt709, progressive), 1920x1080 [SAR 1:1 DAR 16:9], q=2-31, 200 kb/s, 23.98 fps, 23.98 tbn
      Metadata:
        encoder         : Lavc61.19.100 wrapped_avframe
  Stream #0:1: Audio: pcm_s16le, 48000 Hz, stereo, s16, 1536 kb/s (default)
      Metadata:
        HANDLER_NAME    : SoundHandler
        VENDOR_ID       : [0][0][0][0]
        _STATISTICS_TAGS: BPS DURATION NUMBER_OF_FRAMES NUMBER_OF_BYTES
        BPS             : 193247
        DURATION        : 00:23:46.730000000
        NUMBER_OF_FRAMES: 66879
        NUMBER_OF_BYTES : 34463951
        _STATISTICS_WRITING_APP: mkvpropedit v66.0.0 ('Josie') 64-bit
        _STATISTICS_WRITING_DATE_UTC: 2025-05-31 13:21:37
        encoder         : Lavc61.19.100 pcm_s16le
frame=  156 fps=0.0 q=-0.0 size=N/A time=00:00:06.50 bitrate=N/A speed=12.8x    frame=  369 fps=359 q=-0.0 size=N/A time=00:00:15.39 bitrate=N/A speed=  15x    frame=  628 fps=405 q=-0.0 size=N/A time=00:00:26.19 bitrate=N/A speed=16.9x    frame=  853 fps=414 q=-0.0 size=N/A time=00:00:35.57 bitrate=N/A speed=17.3x    frame= 1110 fps=430 q=-0.0 size=N/A time=00:00:46.29 bitrate=N/A speed=17.9x    frame= 1337 fps=433 q=-0.0 size=N/A time=00:00:55.76 bitrate=N/A speed=  18x    frame= 1567 fps=434 q=-0.0 size=N/A time=00:01:05.35 bitrate=N/A speed=18.1x    frame= 1715 fps=416 q=-0.0 size=N/A time=00:01:11.52 bitrate=N/A speed=17.4x    frame= 1901 fps=409 q=-0.0 size=N/A time=00:01:19.28 bitrate=N/A speed=17.1x    frame= 2090 fps=405 q=-0.0 size=N/A time=00:01:27.17 bitrate=N/A speed=16.9x    frame= 2293 fps=404 q=-0.0 size=N/A time=00:01:35.63 bitrate=N/A speed=16.8x    frame= 2470 fps=399 q=-0.0 size=N/A time=00:01:43.01 bitrate=N/A speed=16.7x    frame= 2662 fps=397 q=-0.0 size=N/A time=00:01:51.02 bitrate=N/A speed=16.6x    frame= 2860 fps=396 q=-0.0 size=N/A time=00:01:59.28 bitrate=N/A speed=16.5x    frame= 3064 fps=396 q=-0.0 size=N/A time=00:02:07.79 bitrate=N/A speed=16.5x    frame= 3263 fps=396 q=-0.0 size=N/A time=00:02:16.09 bitrate=N/A speed=16.5x    frame= 3495 fps=398 q=-0.0 size=N/A time=00:02:25.77 bitrate=N/A speed=16.6x    frame= 3743 fps=403 q=-0.0 size=N/A time=00:02:36.11 bitrate=N/A speed=16.8x    frame= 4012 fps=409 q=-0.0 size=N/A time=00:02:47.33 bitrate=N/A speed=17.1x    frame= 4267 fps=414 q=-0.0 size=N/A time=00:02:57.96 bitrate=N/A speed=17.3x    frame= 4540 fps=419 q=-0.0 size=N/A time=00:03:09.35 bitrate=N/A speed=17.5x    frame= 4808 fps=424 q=-0.0 size=N/A time=00:03:20.53 bitrate=N/A speed=17.7x    frame= 5062 fps=427 q=-0.0 size=N/A time=00:03:31.12 bitrate=N/A speed=17.8x    frame= 5328 fps=431 q=-0.0 size=N/A time=00:03:42.22 bitrate=N/A speed=  18x    frame= 5597 fps=434 q=-0.0 size=N/A time=00:03:53.44 bitrate=N/A speed=18.1x    frame= 5846 fps=436 q=-0.0 size=N/A time=00:04:03.82 bitrate=N/A speed=18.2x    frame= 6091 fps=437 q=-0.0 size=N/A time=00:04:14.04 bitrate=N/A speed=18.2x    frame= 6332 fps=439 q=-0.0 size=N/A time=00:04:24.09 bitrate=N/A speed=18.3x    frame= 6582 fps=440 q=-0.0 size=N/A time=00:04:34.52 bitrate=N/A speed=18.4x    frame= 6834 fps=442 q=-0.0 size=N/A time=00:04:45.03 bitrate=N/A speed=18.4x    frame= 7058 fps=442 q=-0.0 size=N/A time=00:04:54.37 bitrate=N/A speed=18.4x    frame= 7317 fps=443 q=-0.0 size=N/A time=00:05:05.17 bitrate=N/A speed=18.5x    frame= 7567 fps=445 q=-0.0 size=N/A time=00:05:15.60 bitrate=N/A speed=18.5x    frame= 7824 fps=446 q=-0.0 size=N/A time=00:05:26.32 bitrate=N/A speed=18.6x    frame= 8064 fps=447 q=-0.0 size=N/A time=00:05:36.33 bitrate=N/A speed=18.6x    frame= 8300 fps=447 q=-0.0 size=N/A time=00:05:46.17 bitrate=N/A speed=18.7x    frame= 8578 fps=450 q=-0.0 size=N/A time=00:05:57.77 bitrate=N/A speed=18.7x    frame= 8838 fps=451 q=-0.0 size=N/A time=00:06:08.61 bitrate=N/A speed=18.8x    frame= 9116 fps=453 q=-0.0 size=N/A time=00:06:20.21 bitrate=N/A speed=18.9x    frame= 9369 fps=454 q=-0.0 size=N/A time=00:06:30.76 bitrate=N/A speed=18.9x    frame= 9610 fps=455 q=-0.0 size=N/A time=00:06:40.81 bitrate=N/A speed=  19x    frame= 9862 fps=455 q=-0.0 size=N/A time=00:06:51.32 bitrate=N/A speed=  19x    frame=10113 fps=456 q=-0.0 size=N/A time=00:07:01.79 bitrate=N/A speed=  19x    frame=10360 fps=457 q=-0.0 size=N/A time=00:07:12.09 bitrate=N/A speed=  19x    frame=10605 fps=457 q=-0.0 size=N/A time=00:07:22.31 bitrate=N/A speed=19.1x    frame=10855 fps=458 q=-0.0 size=N/A time=00:07:32.74 bitrate=N/A speed=19.1x    frame=11088 fps=458 q=-0.0 size=N/A time=00:07:42.46 bitrate=N/A speed=19.1x    frame=11349 fps=458 q=-0.0 size=N/A time=00:07:53.34 bitrate=N/A speed=19.1x    frame=11609 fps=460 q=-0.0 size=N/A time=00:08:04.19 bitrate=N/A speed=19.2x    frame=11880 fps=461 q=-0.0 size=N/A time=00:08:15.49 bitrate=N/A speed=19.2x    frame=12091 fps=460 q=-0.0 size=N/A time=00:08:24.29 bitrate=N/A speed=19.2x    frame=12320 fps=459 q=-0.0 size=N/A time=00:08:33.84 bitrate=N/A speed=19.2x    frame=12539 fps=459 q=-0.0 size=N/A time=00:08:42.98 bitrate=N/A speed=19.1x    frame=12774 fps=459 q=-0.0 size=N/A time=00:08:52.78 bitrate=N/A speed=19.1x    frame=13012 fps=459 q=-0.0 size=N/A time=00:09:02.70 bitrate=N/A speed=19.1x    frame=13287 fps=460 q=-0.0 size=N/A time=00:09:14.17 bitrate=N/A speed=19.2x    frame=13509 fps=460 q=-0.0 size=N/A time=00:09:23.43 bitrate=N/A speed=19.2x    frame=13773 fps=460 q=-0.0 size=N/A time=00:09:34.49 bitrate=N/A speed=19.2x    frame=14035 fps=461 q=-0.0 size=N/A time=00:09:45.37 bitrate=N/A speed=19.2x    frame=14285 fps=462 q=-0.0 size=N/A time=00:09:55.80 bitrate=N/A speed=19.3x    frame=14530 fps=462 q=-0.0 size=N/A time=00:10:06.02 bitrate=N/A speed=19.3x    frame=14741 fps=461 q=-0.0 size=N/A time=00:10:14.82 bitrate=N/A speed=19.2x    frame=14966 fps=461 q=-0.0 size=N/A time=00:10:24.20 bitrate=N/A speed=19.2x    frame=15219 fps=461 q=-0.0 size=N/A time=00:10:34.75 bitrate=N/A speed=19.2x    frame=15443 fps=461 q=-0.0 size=N/A time=00:10:44.10 bitrate=N/A speed=19.2x    frame=15697 fps=461 q=-0.0 size=N/A time=00:10:54.69 bitrate=N/A speed=19.2x    frame=15976 fps=462 q=-0.0 size=N/A time=00:11:06.33 bitrate=N/A speed=19.3x    frame=16170 fps=461 q=-0.0 size=N/A time=00:11:14.42 bitrate=N/A speed=19.2x    frame=16403 fps=461 q=-0.0 size=N/A time=00:11:24.14 bitrate=N/A speed=19.2x    frame=16551 fps=458 q=-0.0 size=N/A time=00:11:30.31 bitrate=N/A speed=19.1x    frame=16757 fps=458 q=-0.0 size=N/A time=00:11:38.90 bitrate=N/A speed=19.1x    frame=16965 fps=457 q=-0.0 size=N/A time=00:11:47.58 bitrate=N/A speed=19.1x    frame=17188 fps=456 q=-0.0 size=N/A time=00:11:56.88 bitrate=N/A speed=  19x    frame=17429 fps=457 q=-0.0 size=N/A time=00:12:06.93 bitrate=N/A speed=  19x    frame=17676 fps=457 q=-0.0 size=N/A time=00:12:17.23 bitrate=N/A speed=19.1x    frame=17911 fps=457 q=-0.0 size=N/A time=00:12:27.03 bitrate=N/A speed=19.1x    frame=18117 fps=456 q=-0.0 size=N/A time=00:12:35.62 bitrate=N/A speed=  19x    frame=18344 fps=456 q=-0.0 size=N/A time=00:12:45.09 bitrate=N/A speed=  19x    frame=18574 fps=456 q=-0.0 size=N/A time=00:12:54.69 bitrate=N/A speed=  19x    frame=18816 fps=456 q=-0.0 size=N/A time=00:13:04.78 bitrate=N/A speed=  19x    frame=19060 fps=456 q=-0.0 size=N/A time=00:13:14.96 bitrate=N/A speed=  19x    frame=19303 fps=456 q=-0.0 size=N/A time=00:13:25.09 bitrate=N/A speed=  19x    frame=19544 fps=456 q=-0.0 size=N/A time=00:13:35.14 bitrate=N/A speed=  19x    frame=19774 fps=456 q=-0.0 size=N/A time=00:13:44.74 bitrate=N/A speed=  19x    frame=19983 fps=456 q=-0.0 size=N/A time=00:13:53.45 bitrate=N/A speed=  19x    frame=20181 fps=455 q=-0.0 size=N/A time=00:14:01.71 bitrate=N/A speed=  19x    frame=20412 fps=455 q=-0.0 size=N/A time=00:14:11.35 bitrate=N/A speed=  19x    frame=20607 fps=454 q=-0.0 size=N/A time=00:14:19.48 bitrate=N/A speed=18.9x    frame=20828 fps=454 q=-0.0 size=N/A time=00:14:28.70 bitrate=N/A speed=18.9x    frame=21062 fps=454 q=-0.0 size=N/A time=00:14:38.46 bitrate=N/A speed=18.9x    frame=21286 fps=453 q=-0.0 size=N/A time=00:14:47.80 bitrate=N/A speed=18.9x    frame=21520 fps=453 q=-0.0 size=N/A time=00:14:57.56 bitrate=N/A speed=18.9x    frame=21760 fps=453 q=-0.0 size=N/A time=00:15:07.57 bitrate=N/A speed=18.9x    frame=21989 fps=453 q=-0.0 size=N/A time=00:15:17.12 bitrate=N/A speed=18.9x    frame=22198 fps=453 q=-0.0 size=N/A time=00:15:25.84 bitrate=N/A speed=18.9x    frame=22433 fps=453 q=-0.0 size=N/A time=00:15:35.64 bitrate=N/A speed=18.9x    frame=22653 fps=453 q=-0.0 size=N/A time=00:15:44.81 bitrate=N/A speed=18.9x    frame=22866 fps=452 q=-0.0 size=N/A time=00:15:53.70 bitrate=N/A speed=18.9x    frame=23129 fps=453 q=-0.0 size=N/A time=00:16:04.67 bitrate=N/A speed=18.9x    frame=23360 fps=453 q=-0.0 size=N/A time=00:16:14.30 bitrate=N/A speed=18.9x    frame=23588 fps=452 q=-0.0 size=N/A time=00:16:23.81 bitrate=N/A speed=18.9x    frame=23823 fps=453 q=-0.0 size=N/A time=00:16:33.61 bitrate=N/A speed=18.9x    frame=24089 fps=453 q=-0.0 size=N/A time=00:16:44.71 bitrate=N/A speed=18.9x    frame=24319 fps=453 q=-0.0 size=N/A time=00:16:54.30 bitrate=N/A speed=18.9x    frame=24563 fps=453 q=-0.0 size=N/A time=00:17:04.48 bitrate=N/A speed=18.9x    frame=24804 fps=453 q=-0.0 size=N/A time=00:17:14.53 bitrate=N/A speed=18.9x    frame=25053 fps=454 q=-0.0 size=N/A time=00:17:24.91 bitrate=N/A speed=18.9x    frame=25306 fps=454 q=-0.0 size=N/A time=00:17:35.47 bitrate=N/A speed=18.9x    frame=25541 fps=454 q=-0.0 size=N/A time=00:17:45.27 bitrate=N/A speed=18.9x    frame=25816 fps=455 q=-0.0 size=N/A time=00:17:56.74 bitrate=N/A speed=  19x    frame=26066 fps=455 q=-0.0 size=N/A time=00:18:07.16 bitrate=N/A speed=  19x    frame=26312 fps=455 q=-0.0 size=N/A time=00:18:17.42 bitrate=N/A speed=  19x    frame=26573 fps=456 q=-0.0 size=N/A time=00:18:28.31 bitrate=N/A speed=  19x    frame=26807 fps=456 q=-0.0 size=N/A time=00:18:38.07 bitrate=N/A speed=  19x    frame=27063 fps=456 q=-0.0 size=N/A time=00:18:48.75 bitrate=N/A speed=  19x    frame=27289 fps=456 q=-0.0 size=N/A time=00:18:58.17 bitrate=N/A speed=  19x    frame=27544 fps=456 q=-0.0 size=N/A time=00:19:08.81 bitrate=N/A speed=  19x    frame=27775 fps=456 q=-0.0 size=N/A time=00:19:18.44 bitrate=N/A speed=  19x    frame=28012 fps=456 q=-0.0 size=N/A time=00:19:28.33 bitrate=N/A speed=  19x    frame=28231 fps=456 q=-0.0 size=N/A time=00:19:37.46 bitrate=N/A speed=  19x    frame=28466 fps=456 q=-0.0 size=N/A time=00:19:47.26 bitrate=N/A speed=  19x    frame=28716 fps=456 q=-0.0 size=N/A time=00:19:57.69 bitrate=N/A speed=  19x    frame=28960 fps=456 q=-0.0 size=N/A time=00:20:07.87 bitrate=N/A speed=  19x    frame=29229 fps=457 q=-0.0 size=N/A time=00:20:19.09 bitrate=N/A speed=  19x    frame=29477 fps=457 q=-0.0 size=N/A time=00:20:29.43 bitrate=N/A speed=  19x    frame=29701 fps=457 q=-0.0 size=N/A time=00:20:38.77 bitrate=N/A speed=  19x    frame=29951 fps=457 q=-0.0 size=N/A time=00:20:49.20 bitrate=N/A speed=19.1x    frame=30191 fps=457 q=-0.0 size=N/A time=00:20:59.21 bitrate=N/A speed=19.1x    frame=30436 fps=457 q=-0.0 size=N/A time=00:21:09.43 bitrate=N/A speed=19.1x    frame=30695 fps=457 q=-0.0 size=N/A time=00:21:20.23 bitrate=N/A speed=19.1x    frame=30952 fps=458 q=-0.0 size=N/A time=00:21:30.95 bitrate=N/A speed=19.1x    frame=31202 fps=458 q=-0.0 size=N/A time=00:21:41.38 bitrate=N/A speed=19.1x    frame=31444 fps=458 q=-0.0 size=N/A time=00:21:51.47 bitrate=N/A speed=19.1x    frame=31695 fps=458 q=-0.0 size=N/A time=00:22:01.94 bitrate=N/A speed=19.1x    frame=31945 fps=458 q=-0.0 size=N/A time=00:22:12.37 bitrate=N/A speed=19.1x    frame=32204 fps=459 q=-0.0 size=N/A time=00:22:23.17 bitrate=N/A speed=19.1x    frame=32462 fps=459 q=-0.0 size=N/A time=00:22:33.93 bitrate=N/A speed=19.1x    frame=32723 fps=459 q=-0.0 size=N/A time=00:22:44.82 bitrate=N/A speed=19.2x    frame=32991 fps=460 q=-0.0 size=N/A time=00:22:55.99 bitrate=N/A speed=19.2x    frame=33226 fps=460 q=-0.0 size=N/A time=00:23:05.80 bitrate=N/A speed=19.2x    frame=33449 fps=460 q=-0.0 size=N/A time=00:23:15.10 bitrate=N/A speed=19.2x    frame=33672 fps=459 q=-0.0 size=N/A time=00:23:24.40 bitrate=N/A speed=19.2x    frame=33891 fps=459 q=-0.0 size=N/A time=00:23:33.53 bitrate=N/A speed=19.2x    frame=34161 fps=460 q=-0.0 size=N/A time=00:23:44.79 bitrate=N/A speed=19.2x    [Parsed_ssim_10 @ 000001d630281b80] SSIM Y:0.994007 (22.223854) U:0.994176 (22.347835) V:0.994340 (22.472211) All:0.994091 (22.284884)
[out#0/null @ 000001d630234c00] video:14697KiB audio:267516KiB subtitle:0KiB other streams:0KiB global headers:0KiB muxing overhead: unknown
frame=34203 fps=460 q=-0.0 Lsize=N/A time=00:23:46.55 bitrate=N/A speed=19.2x    
